<?xml version="1.0" standalone="no"?>
<!DOCTYPE svg PUBLIC "-//W3C//DTD SVG 20010904//EN"
 "http://www.w3.org/TR/2001/REC-SVG-20010904/DTD/svg10.dtd">
<svg version="1.0" xmlns="http://www.w3.org/2000/svg"
 width="186.000000pt" height="201.000000pt" viewBox="0 0 186.000000 201.000000"
 preserveAspectRatio="xMidYMid meet">
<metadata>
Created by potrace 1.16, written by Peter Selinger 2001-2019
</metadata>
<g transform="translate(0.000000,201.000000) scale(0.100000,-0.100000)"
fill="#000000" stroke="none">
<path d="M1727 1908 c-71 -76 -88 -90 -97 -78 -9 13 -16 9 -45 -22 -22 -23
-35 -32 -35 -23 0 27 -30 29 -57 4 -22 -21 -21 -18 7 23 48 68 20 107 -43 58
-31 -24 -35 -25 -39 -3 -5 29 -205 -239 -350 -472 -92 -147 -124 -203 -318
-567 -85 -159 -156 -288 -159 -288 -7 0 -86 139 -131 229 -17 35 -42 74 -55
87 -13 13 -40 55 -60 93 -34 64 -67 93 -81 70 -9 -15 -20 -10 -32 14 -6 12
-11 16 -11 8 -1 -8 11 -34 25 -58 14 -25 23 -47 21 -50 -3 -2 -11 5 -17 17 -8
14 -18 20 -30 17 -11 -3 -24 1 -31 9 -6 8 -22 14 -35 14 -12 0 -26 5 -29 10
-3 6 -13 10 -21 10 -11 0 -13 -6 -8 -22 12 -39 495 -948 504 -948 3 0 45 84
95 186 175 364 408 772 626 1094 146 216 267 372 409 529 104 113 128 151 97
151 -8 0 -53 -42 -100 -92z"/>
</g>
</svg>
